<?xml version="1.0" standalone="no"?>
<!DOCTYPE svg PUBLIC "-//W3C//DTD SVG 20010904//EN"
 "http://www.w3.org/TR/2001/REC-SVG-20010904/DTD/svg10.dtd">
<svg version="1.0" xmlns="http://www.w3.org/2000/svg"
 width="2682.000000pt" height="1341.000000pt" viewBox="0 0 2682.000000 1341.000000"
 preserveAspectRatio="xMidYMid meet">

<g transform="translate(0.000000,1341.000000) scale(0.100000,-0.100000)"
fill="#75E4F3" stroke="none">
<path d="M7935 12520 c-902 -43 -1727 -82 -1834 -86 l-193 -7 6 -76 c3 -42 76
-1365 162 -2941 86 -1576 157 -2866 158 -2867 2 -2 1780 80 1784 82 1 1 -36
519 -82 1151 -47 631 -84 1149 -83 1150 1 1 344 21 762 45 418 23 763 45 767
48 8 7 -54 1216 -63 1225 -3 3 -93 1 -200 -4 -482 -24 -1342 -61 -1344 -58 -4
5 -35 407 -35 456 0 23 3 42 8 42 4 0 257 18 562 39 305 22 747 52 983 67 235
15 431 31 437 34 5 3 -8 354 -33 893 l-42 887 -40 -1 c-22 -1 -778 -37 -1680
-79z m1629 -52 c10 -67 75 -1553 68 -1559 -4 -3 -128 -14 -277 -23 -148 -10
-529 -35 -845 -57 -859 -59 -853 -58 -867 -96 -8 -20 36 -635 46 -646 4 -4
351 8 771 27 421 19 767 33 770 30 8 -9 59 -1028 52 -1035 -4 -3 -185 -16
-402 -28 -686 -38 -1125 -64 -1128 -66 -2 -2 34 -518 81 -1147 47 -628 83
-1145 80 -1148 -4 -5 -43 -7 -958 -49 -346 -17 -630 -29 -631 -28 -4 6 -312
5683 -308 5686 3 3 750 40 1662 82 911 43 1689 79 1727 81 170 9 154 12 159
-24z"/>
<path d="M12475 11439 c-8 -36 -576 -5981 -571 -5986 2 -2 91 -17 197 -33 107
-16 306 -47 443 -70 941 -153 1228 -184 1721 -184 367 0 483 9 712 60 321 71
592 208 780 392 231 228 353 496 428 934 84 495 42 872 -129 1162 -53 89 -177
221 -266 282 l-70 47 57 23 c281 114 465 461 558 1051 58 364 40 623 -67 932
-203 593 -672 1025 -1251 1150 -59 13 -535 64 -1259 136 -640 64 -1189 119
-1220 122 -54 5 -57 4 -63 -18z m470 -120 c171 -16 648 -63 1060 -104 413 -41
779 -77 815 -81 98 -9 241 -40 343 -74 543 -182 946 -657 1079 -1270 30 -140
33 -454 5 -630 -91 -580 -268 -923 -524 -1011 -73 -25 -155 -24 -390 1 -102
12 -189 20 -195 18 -5 -2 80 -34 189 -72 232 -80 352 -135 447 -207 191 -145
311 -385 347 -690 30 -263 -22 -711 -116 -996 -40 -121 -127 -289 -199 -384
-266 -351 -694 -529 -1341 -559 -406 -18 -823 16 -1525 125 -352 55 -935 147
-936 149 -1 0 124 1306 277 2901 153 1595 278 2906 279 2913 0 8 11 11 38 7
20 -3 177 -19 347 -36z"/>
<path d="M13778 9942 c-20 -24 -135 -961 -119 -971 12 -8 301 -46 461 -61 126
-12 348 -12 435 0 237 34 390 122 463 266 87 173 59 362 -72 481 -147 134
-374 204 -861 263 -137 16 -259 32 -271 35 -13 3 -27 -2 -36 -13z m292 -117
c462 -55 671 -116 800 -232 70 -63 100 -127 100 -215 0 -173 -113 -300 -315
-352 -107 -27 -266 -37 -437 -26 -138 9 -457 45 -463 52 -1 2 19 174 46 383
26 209 48 388 49 398 0 21 -24 22 220 -8z"/>
<path d="M13518 7552 c-20 -24 -135 -961 -119 -971 12 -8 301 -46 461 -61 126
-12 348 -12 435 0 237 34 390 122 463 266 87 173 59 362 -72 481 -147 134
-374 204 -861 263 -137 16 -259 32 -271 35 -13 3 -27 -2 -36 -13z m292 -117
c462 -55 671 -116 800 -232 70 -63 100 -127 100 -215 0 -173 -113 -300 -315
-352 -107 -27 -266 -37 -437 -26 -138 9 -457 45 -463 52 -1 2 19 174 46 383
26 209 48 388 49 398 0 21 -24 22 220 -8z"/>
<path d="M25155 10979 c-203 -3 -698 -12 -1100 -19 -401 -7 -863 -15 -1025
-19 l-295 -6 -4 -30 c-2 -16 0 -346 4 -733 l7 -703 367 8 c201 4 402 8 446 8
l80 0 59 -1505 c33 -828 61 -1507 62 -1509 3 -4 1197 30 1202 35 2 1 -12 670
-32 1486 -20 816 -36 1498 -36 1516 l0 32 520 0 520 0 0 138 c0 75 -7 380 -15
677 -8 297 -15 561 -15 588 l0 47 -187 -2 c-104 -1 -354 -5 -558 -9z m655
-190 c0 -117 17 -834 24 -1020 l5 -127 -526 -7 -526 -7 7 -167 c14 -393 69
-2852 63 -2858 -9 -9 -995 -38 -1004 -29 -4 3 -33 656 -64 1449 -32 793 -59
1469 -61 1502 l-3 60 -35 -1 c-19 0 -221 -4 -447 -8 l-413 -8 0 635 0 635 123
6 c67 3 453 11 857 17 404 6 904 14 1110 18 206 4 491 8 633 9 l257 2 0 -101z"/>
<path d="M3135 10614 c-223 -22 -280 -34 -490 -106 -624 -213 -1071 -534
-1368 -983 -78 -118 -205 -380 -256 -527 -75 -218 -131 -482 -167 -783 -21
-186 -30 -804 -15 -1055 45 -737 289 -1423 678 -1905 439 -544 1067 -835 1805
-835 272 0 409 22 658 109 1068 369 1709 1263 1811 2527 17 213 6 674 -20 874
-86 644 -266 1153 -562 1590 -113 167 -197 269 -339 410 -364 364 -822 597
-1304 665 -108 15 -359 26 -431 19z m460 -119 c366 -67 664 -196 963 -419 140
-104 375 -340 485 -488 355 -475 564 -1044 644 -1760 23 -212 23 -666 -1 -871
-77 -666 -289 -1194 -648 -1612 -309 -360 -717 -617 -1222 -770 -145 -43 -245
-55 -489 -55 -213 0 -328 10 -507 46 -965 192 -1639 1003 -1844 2219 -38 231
-50 416 -50 815 0 394 13 583 59 856 146 864 544 1423 1271 1787 241 120 574
237 748 262 132 19 465 13 591 -10z"/>
<path d="M3380 9417 l-705 -221 169 -733 c93 -403 167 -735 165 -738 -3 -2
-45 -16 -94 -30 -268 -78 -478 -226 -618 -437 -66 -98 -97 -166 -134 -287 -24
-78 -27 -102 -27 -246 0 -146 3 -168 28 -250 43 -142 161 -324 279 -433 109
-99 263 -177 422 -213 96 -22 339 -17 460 10 478 103 713 334 744 728 23 296
-46 624 -274 1303 -36 107 -62 197 -57 200 4 4 126 44 272 89 145 45 265 83
267 84 2 3 -125 428 -130 433 -1 1 -115 -28 -252 -66 -138 -37 -259 -70 -269
-72 -17 -2 -23 9 -42 70 -16 53 -19 74 -11 77 19 6 768 215 771 215 2 0 -49
166 -113 370 -86 273 -120 370 -131 369 -8 0 -332 -100 -720 -222z m756 -167
c46 -146 84 -269 84 -275 0 -5 -174 -59 -388 -118 -213 -60 -388 -109 -389
-111 -3 -3 96 -318 102 -324 3 -3 125 27 271 67 146 40 267 71 268 69 6 -9 77
-251 74 -252 -2 -2 -124 -40 -273 -86 -148 -46 -272 -85 -274 -86 -1 -2 33
-112 77 -246 233 -704 285 -924 286 -1208 1 -143 -3 -176 -22 -245 -75 -259
-253 -405 -600 -492 -95 -24 -126 -27 -277 -28 -199 0 -250 10 -395 82 -83 40
-108 59 -195 147 -160 161 -233 304 -255 495 -35 309 122 632 400 821 133 90
277 145 463 175 37 6 38 7 31 38 -3 18 -80 351 -170 741 -90 390 -161 712
-158 715 10 10 1228 390 1243 388 9 -1 44 -96 97 -267z"/>
<path d="M21340 9048 c-162 -7 -272 -25 -435 -68 -271 -72 -488 -191 -660
-364 -382 -384 -526 -1030 -475 -2136 18 -387 36 -626 125 -1610 59 -656 95
-1077 95 -1117 l0 -26 108 7 c371 24 1206 86 1209 90 3 2 -14 180 -37 395 -23
215 -40 396 -37 403 3 9 99 21 332 41 179 16 328 27 330 25 3 -2 25 -182 50
-398 59 -517 47 -462 98 -455 23 3 349 39 725 79 375 40 684 75 686 77 2 2 -5
108 -15 234 -10 127 -39 534 -64 905 -66 982 -101 1365 -160 1779 -184 1285
-570 1910 -1290 2091 -182 46 -347 60 -585 48z m435 -112 c140 -24 260 -62
380 -121 603 -296 898 -1021 1039 -2555 26 -274 44 -514 91 -1205 24 -363 50
-731 57 -817 6 -87 10 -160 7 -162 -6 -6 -1259 -140 -1263 -135 -3 2 -25 186
-51 409 -25 223 -48 414 -50 425 -4 21 -6 20 -431 -17 -234 -20 -428 -38 -430
-41 -2 -2 16 -183 39 -403 24 -219 43 -400 42 -402 -5 -6 -1115 -86 -1121 -80
-1 2 -12 116 -24 253 -11 138 -45 522 -75 855 -113 1257 -120 1364 -120 1920
0 504 7 610 62 885 116 586 398 938 892 1109 114 40 309 83 436 96 114 12 414
4 520 -14z"/>
<path d="M21360 7226 c-79 -18 -149 -57 -202 -114 -123 -131 -168 -341 -153
-714 l7 -188 45 0 c43 0 897 60 899 63 3 5 -38 366 -52 456 -35 230 -103 370
-212 439 -86 55 -232 81 -332 58z m238 -116 c134 -58 192 -196 233 -557 11
-101 19 -187 16 -189 -4 -5 -656 -54 -714 -54 l-33 0 0 194 c0 273 25 403 100
511 36 53 78 84 145 108 67 24 181 18 253 -13z"/>
<path d="M17715 8375 c-671 -56 -1235 -105 -1253 -109 -30 -7 -32 -10 -28 -39
3 -18 63 -886 133 -1930 70 -1044 130 -1903 134 -1908 4 -7 161 5 435 31 236
22 596 56 799 75 1171 111 1385 132 1391 137 5 6 -134 1159 -140 1166 -2 1
-286 -27 -632 -63 -346 -36 -645 -66 -664 -68 l-35 -2 -11 90 c-7 50 -13 107
-13 128 -1 35 0 37 32 37 18 0 150 11 293 25 142 13 428 41 633 60 206 20 377
37 378 39 6 6 -103 1095 -110 1102 -4 4 -294 -19 -644 -50 -351 -31 -652 -56
-669 -56 l-31 0 -13 130 c-7 72 -11 132 -9 134 2 3 311 30 687 62 376 32 688
62 694 65 8 5 0 147 -31 516 -23 279 -41 514 -41 521 0 7 -12 12 -32 11 -18
-1 -582 -47 -1253 -104z m1195 -2 c0 -3 16 -197 36 -431 19 -233 34 -425 32
-427 -2 -1 -313 -29 -693 -60 -379 -32 -693 -61 -697 -65 -7 -5 37 -449 45
-456 1 -2 304 24 671 57 368 33 670 58 671 57 5 -6 92 -913 88 -917 -2 -3
-303 -33 -670 -68 -366 -34 -667 -64 -669 -66 -5 -5 45 -429 51 -435 2 -2 302
27 666 65 435 45 662 65 664 58 8 -24 119 -964 115 -968 -3 -3 -250 -28 -550
-56 -1165 -110 -1816 -171 -1850 -173 l-35 -3 -125 1845 c-110 1622 -124 1845
-110 1849 8 2 537 48 1175 101 638 54 1166 98 1173 99 6 0 12 -2 12 -6z"/>
<path d="M8559 8255 c-11 -28 -520 -4426 -513 -4434 6 -6 1507 -152 1512 -146
3 3 42 378 87 835 44 456 84 832 87 836 4 3 293 -26 643 -66 351 -39 640 -69
643 -66 7 8 104 997 98 1003 -3 3 -148 25 -323 49 -838 117 -956 134 -961 139
-5 5 27 307 33 313 1 2 365 -44 806 -101 442 -57 805 -103 807 -102 5 4 215
1425 211 1429 -2 2 -51 9 -109 15 -58 7 -395 43 -750 82 -355 38 -933 101
-1285 139 -352 38 -715 78 -807 88 l-168 18 -11 -31z m1563 -233 c796 -87
1450 -161 1454 -165 4 -3 -15 -149 -41 -324 -26 -175 -67 -450 -90 -611 -24
-162 -45 -296 -48 -298 -2 -3 -123 11 -268 30 -145 19 -390 51 -544 71 -154
20 -397 52 -539 70 -143 19 -262 32 -265 29 -6 -6 -60 -497 -55 -503 3 -3
1267 -181 1287 -181 4 0 5 -10 3 -22 -3 -13 -22 -200 -42 -416 l-38 -392 -30
5 c-47 8 -1260 145 -1262 142 -2 -1 -40 -380 -85 -842 -45 -462 -82 -841 -83
-842 -1 -2 -646 61 -731 71 -22 3 -164 17 -315 32 -151 15 -276 28 -278 29 -3
3 476 4218 483 4253 3 13 13 22 23 22 9 -1 668 -72 1464 -158z"/>
</g>
</svg>
