<?xml version="1.0" standalone="no"?>
<!DOCTYPE svg PUBLIC "-//W3C//DTD SVG 20010904//EN"
 "http://www.w3.org/TR/2001/REC-SVG-20010904/DTD/svg10.dtd">
<svg version="1.0" xmlns="http://www.w3.org/2000/svg"
 width="2682.000000pt" height="1341.000000pt" viewBox="0 0 2682.000000 1341.000000"
 preserveAspectRatio="xMidYMid meet">

<g transform="translate(0.000000,1341.000000) scale(0.100000,-0.100000)"
fill="#000000" stroke="none">
<path d="M7935 12520 c-902 -43 -1727 -82 -1834 -86 l-193 -7 6 -76 c3 -42 76
-1365 162 -2941 86 -1576 157 -2866 158 -2867 2 -2 1780 80 1784 82 1 1 -36
519 -82 1151 -47 631 -84 1149 -83 1150 1 1 344 21 762 45 418 23 763 45 767
48 8 7 -54 1216 -63 1225 -3 3 -93 1 -200 -4 -482 -24 -1342 -61 -1344 -58 -4
5 -35 407 -35 456 0 23 3 42 8 42 4 0 257 18 562 39 305 22 747 52 983 67 235
15 431 31 437 34 5 3 -8 354 -33 893 l-42 887 -40 -1 c-22 -1 -778 -37 -1680
-79z m1668 -819 c21 -436 36 -795 35 -796 -2 -1 -120 -10 -263 -19 -143 -9
-521 -35 -840 -56 -898 -62 -877 -60 -891 -102 -7 -22 36 -622 46 -638 4 -6
280 3 760 25 415 19 762 35 770 35 14 0 20 -70 43 -521 15 -287 26 -523 25
-524 -2 -1 -347 -21 -768 -45 -421 -24 -766 -44 -768 -45 -1 -1 36 -517 82
-1146 47 -629 82 -1147 78 -1150 -7 -6 -1583 -82 -1588 -76 -7 7 -313 5682
-306 5687 4 4 765 41 1692 84 927 42 1696 78 1710 80 14 2 52 3 85 2 l60 -1
38 -794z"/>
<path d="M12475 11439 c-8 -36 -576 -5981 -571 -5986 2 -2 91 -17 197 -33 107
-16 306 -47 443 -70 941 -153 1228 -184 1721 -184 367 0 483 9 712 60 321 71
592 208 780 392 231 228 353 496 428 934 84 495 42 872 -129 1162 -53 89 -177
221 -266 282 l-70 47 57 23 c281 114 465 461 558 1051 58 364 40 623 -67 932
-203 593 -672 1025 -1251 1150 -59 13 -535 64 -1259 136 -640 64 -1189 119
-1220 122 -54 5 -57 4 -63 -18z m1240 -194 c583 -57 1101 -110 1150 -116 376
-47 720 -231 973 -519 299 -342 468 -831 432 -1250 -46 -518 -182 -918 -376
-1106 -67 -64 -136 -101 -223 -119 -64 -14 -86 -13 -297 10 -126 14 -233 25
-239 25 -5 -1 90 -36 212 -80 122 -43 258 -97 302 -120 256 -133 415 -378 467
-720 33 -216 7 -584 -62 -875 -136 -571 -468 -902 -1046 -1044 -482 -119
-1068 -104 -2078 54 -403 63 -925 146 -927 148 -1 2 542 5686 552 5775 l7 52
46 -5 c26 -3 524 -53 1107 -110z"/>
<path d="M13781 9943 c-15 -16 -138 -959 -127 -971 13 -12 463 -63 616 -68
249 -10 408 14 547 83 215 105 310 357 212 561 -31 65 -121 150 -205 194 -159
84 -361 131 -756 178 -139 17 -258 32 -263 34 -6 2 -16 -3 -24 -11z m289 -118
c462 -55 671 -116 800 -232 70 -63 100 -127 100 -215 0 -173 -113 -300 -315
-352 -107 -27 -266 -37 -437 -26 -138 9 -457 45 -463 52 -1 2 19 174 46 383
26 209 48 388 49 398 0 21 -24 22 220 -8z"/>
<path d="M13521 7553 c-15 -16 -138 -959 -127 -971 13 -12 463 -63 616 -68
249 -10 408 14 547 83 215 105 310 357 212 561 -31 65 -121 150 -205 194 -159
84 -361 131 -756 178 -139 17 -258 32 -263 34 -6 2 -16 -3 -24 -11z m289 -118
c462 -55 671 -116 800 -232 70 -63 100 -127 100 -215 0 -173 -113 -300 -315
-352 -107 -27 -266 -37 -437 -26 -138 9 -457 45 -463 52 -1 2 19 174 46 383
26 209 48 388 49 398 0 21 -24 22 220 -8z"/>
<path d="M25155 10979 c-203 -3 -698 -12 -1100 -19 -401 -7 -863 -15 -1025
-19 l-295 -6 -4 -30 c-2 -16 0 -346 4 -733 l7 -703 367 8 c201 4 402 8 446 8
l80 0 59 -1505 c33 -828 61 -1507 62 -1509 3 -4 1197 30 1202 35 2 1 -12 670
-32 1486 -20 816 -36 1498 -36 1516 l0 32 520 0 520 0 0 138 c0 75 -7 380 -15
677 -8 297 -15 561 -15 588 l0 47 -187 -2 c-104 -1 -354 -5 -558 -9z m668
-714 c9 -341 14 -621 13 -623 -2 -1 -239 -6 -526 -9 l-523 -6 7 -121 c13 -267
70 -2896 62 -2903 -8 -8 -621 -30 -876 -32 l-135 -1 -58 1473 c-32 809 -58
1487 -57 1506 l0 33 -450 -7 -450 -7 0 598 c0 330 -3 615 -6 636 l-6 36 53 6
c30 3 407 10 839 17 432 6 1078 17 1435 23 358 6 653 9 656 6 4 -3 14 -284 22
-625z"/>
<path d="M3135 10614 c-223 -22 -280 -34 -490 -106 -624 -213 -1071 -534
-1368 -983 -78 -118 -205 -380 -256 -527 -75 -218 -131 -482 -167 -783 -21
-186 -30 -804 -15 -1055 45 -737 289 -1423 678 -1905 439 -544 1067 -835 1805
-835 272 0 409 22 658 109 1068 369 1709 1263 1811 2527 17 213 6 674 -20 874
-86 644 -266 1153 -562 1590 -113 167 -197 269 -339 410 -364 364 -822 597
-1304 665 -108 15 -359 26 -431 19z m365 -104 c378 -47 737 -193 1050 -426
131 -98 337 -297 443 -429 388 -481 619 -1099 699 -1865 17 -160 17 -659 0
-805 -134 -1174 -699 -1970 -1662 -2338 -162 -62 -317 -106 -413 -118 -132
-16 -485 -12 -622 6 -716 95 -1266 474 -1639 1126 -217 381 -372 904 -418
1409 -16 184 -16 868 0 1035 67 682 234 1155 545 1540 140 173 356 359 571
489 278 169 709 338 946 371 117 16 386 19 500 5z"/>
<path d="M3385 9418 c-385 -121 -702 -222 -704 -224 -3 -2 301 -1334 329
-1442 8 -30 6 -32 -18 -38 -130 -27 -300 -99 -411 -172 -75 -50 -214 -183
-267 -258 -58 -81 -129 -232 -155 -329 -32 -118 -33 -337 -1 -453 67 -248 258
-480 487 -593 115 -56 180 -75 318 -91 239 -27 583 53 781 182 225 147 326
356 326 672 -1 279 -60 539 -264 1163 -41 126 -72 233 -68 236 4 4 128 44 275
90 160 50 266 87 263 94 -2 6 -32 104 -66 217 -38 124 -67 205 -74 203 -27 -9
-493 -134 -510 -137 -15 -2 -23 10 -42 66 -13 39 -21 73 -17 77 5 3 178 54
387 112 208 58 381 108 384 111 2 3 -47 169 -110 368 -78 247 -119 363 -129
365 -8 0 -329 -98 -714 -219z m751 -168 c46 -146 84 -269 84 -275 0 -5 -174
-59 -388 -118 -213 -60 -388 -109 -389 -111 -3 -3 96 -318 102 -324 3 -3 125
27 271 67 146 40 267 71 268 69 6 -9 77 -251 74 -252 -2 -2 -124 -40 -273 -86
-148 -46 -272 -85 -274 -86 -1 -2 33 -112 77 -246 233 -704 285 -924 286
-1208 1 -143 -3 -176 -22 -245 -75 -259 -253 -405 -600 -492 -95 -24 -126 -27
-277 -28 -199 0 -250 10 -395 82 -83 40 -108 59 -195 147 -160 161 -233 304
-255 495 -35 309 122 632 400 821 133 90 277 145 463 175 37 6 38 7 31 38 -3
18 -80 351 -170 741 -90 390 -161 712 -158 715 10 10 1228 390 1243 388 9 -1
44 -96 97 -267z"/>
<path d="M21340 9048 c-162 -7 -272 -25 -435 -68 -271 -72 -488 -191 -660
-364 -382 -384 -526 -1030 -475 -2136 18 -387 36 -626 125 -1610 59 -656 95
-1077 95 -1117 l0 -26 108 7 c371 24 1206 86 1209 90 3 2 -14 180 -37 395 -23
215 -40 396 -37 403 3 9 99 21 332 41 179 16 328 27 330 25 3 -2 25 -182 50
-398 59 -517 47 -462 98 -455 23 3 349 39 725 79 375 40 684 75 686 77 2 2 -5
108 -15 234 -10 127 -39 534 -64 905 -66 982 -101 1365 -160 1779 -184 1285
-570 1910 -1290 2091 -182 46 -347 60 -585 48z m445 -112 c652 -117 1034 -586
1244 -1526 112 -503 165 -990 261 -2420 23 -333 47 -674 53 -758 7 -85 10
-155 6 -157 -11 -7 -1258 -139 -1263 -134 -3 3 -28 193 -54 422 -27 230 -52
420 -55 424 -6 5 -847 -63 -853 -70 -1 -1 17 -182 41 -402 23 -220 41 -402 39
-404 -7 -8 -1112 -86 -1119 -79 -3 2 -16 139 -30 304 -14 164 -43 493 -65 729
-121 1333 -148 1788 -130 2261 19 500 80 802 220 1089 194 401 541 636 1060
719 141 23 159 24 365 21 117 -2 224 -9 280 -19z"/>
<path d="M21323 7216 c-153 -50 -251 -176 -296 -385 -19 -85 -21 -126 -20
-350 1 -166 5 -257 12 -264 7 -7 139 -1 458 21 247 18 455 32 463 32 14 0 15
13 3 123 -57 561 -113 711 -303 801 -58 27 -76 31 -170 33 -68 2 -120 -2 -147
-11z m275 -106 c134 -58 192 -196 233 -557 11 -101 19 -187 16 -189 -4 -5
-656 -54 -714 -54 l-33 0 0 194 c0 273 25 403 100 511 36 53 78 84 145 108 67
24 181 18 253 -13z"/>
<path d="M17715 8375 c-671 -56 -1235 -105 -1253 -109 -30 -7 -32 -10 -28 -39
3 -18 63 -886 133 -1930 70 -1044 130 -1903 134 -1908 4 -7 161 5 435 31 236
22 596 56 799 75 1171 111 1385 132 1391 137 5 6 -134 1159 -140 1166 -2 1
-286 -27 -632 -63 -346 -36 -645 -66 -664 -68 l-35 -2 -11 90 c-7 50 -13 107
-13 128 -1 35 0 37 32 37 18 0 150 11 293 25 142 13 428 41 633 60 206 20 377
37 378 39 6 6 -103 1095 -110 1102 -4 4 -294 -19 -644 -50 -351 -31 -652 -56
-669 -56 l-31 0 -13 130 c-7 72 -11 132 -9 134 2 3 311 30 687 62 376 32 688
62 694 65 8 5 0 147 -31 516 -23 279 -41 514 -41 521 0 7 -12 12 -32 11 -18
-1 -582 -47 -1253 -104z m1199 -47 c12 -107 68 -809 64 -813 -1 -1 -315 -30
-696 -62 -380 -33 -694 -62 -696 -64 -4 -4 43 -451 47 -455 1 -2 144 10 317
26 724 66 1022 92 1025 88 3 -3 83 -813 88 -888 l2 -35 -235 -22 c-740 -69
-1104 -104 -1106 -106 -4 -4 46 -431 51 -435 2 -2 288 26 637 63 348 36 647
67 663 68 l30 2 61 -485 c33 -267 58 -488 55 -492 -3 -4 -368 -41 -811 -83
-443 -42 -987 -94 -1210 -115 -223 -21 -408 -35 -411 -32 -7 7 -259 3684 -253
3690 2 3 2268 196 2350 201 19 1 22 -6 28 -51z"/>
<path d="M8559 8255 c-11 -28 -520 -4426 -513 -4434 6 -6 1507 -152 1512 -146
3 3 42 378 87 835 44 456 84 832 87 836 4 3 293 -26 643 -66 351 -39 640 -69
643 -66 7 8 104 997 98 1003 -3 3 -148 25 -323 49 -838 117 -956 134 -961 139
-5 5 27 307 33 313 1 2 365 -44 806 -101 442 -57 805 -103 807 -102 5 4 215
1425 211 1429 -2 2 -51 9 -109 15 -58 7 -395 43 -750 82 -355 38 -933 101
-1285 139 -352 38 -715 78 -807 88 l-168 18 -11 -31z m1556 -231 c798 -87
1454 -161 1459 -166 9 -7 -165 -1223 -177 -1234 -5 -5 -147 13 -1207 151 -223
29 -407 51 -409 49 -4 -4 -59 -497 -56 -502 1 -1 292 -43 645 -92 354 -49 644
-91 646 -92 2 -3 -77 -822 -80 -824 0 -1 -291 31 -646 71 -355 40 -646 72
-646 71 -1 0 -39 -379 -84 -841 -45 -462 -83 -841 -84 -842 -1 -1 -269 25
-596 57 -327 33 -625 62 -662 65 -41 4 -68 12 -68 19 0 21 481 4241 485 4254
3 6 10 12 17 12 7 0 666 -70 1463 -156z"/>
</g>
</svg>
